<mxfile host="app.diagrams.net" agent="Mozilla/5.0 (Macintosh; Intel Mac OS X 10_15_7) AppleWebKit/605.1.15 (KHTML, like Gecko) Version/18.1.1 Safari/605.1.15" version="25.0.3">
  <diagram name="Trang-1" id="G4Dm13H11HES0ovpNC6a">
    <mxGraphModel>
      <root>
        <mxCell id="0" />
        <mxCell id="1" parent="0" />
        <mxCell id="2" value="Skin Image Analysis" style="whiteSpace=wrap;strokeWidth=2;" vertex="1" parent="1">
          <mxGeometry x="8" y="223" width="198" height="49" as="geometry" />
        </mxCell>
        <mxCell id="3" value="Detect skin conditions" style="rounded=1;arcSize=40;strokeWidth=2" vertex="1" parent="1">
          <mxGeometry x="305" y="223" width="189" height="49" as="geometry" />
        </mxCell>
        <mxCell id="4" value="Generate acne report" style="rounded=1;arcSize=40;strokeWidth=2" vertex="1" parent="1">
          <mxGeometry x="656" y="8" width="185" height="49" as="geometry" />
        </mxCell>
        <mxCell id="5" value="Generate pigmentation report" style="rounded=1;arcSize=40;strokeWidth=2" vertex="1" parent="1">
          <mxGeometry x="650" y="107" width="197" height="66" as="geometry" />
        </mxCell>
        <mxCell id="6" value="Generate eczema report" style="rounded=1;arcSize=40;strokeWidth=2" vertex="1" parent="1">
          <mxGeometry x="646" y="223" width="206" height="49" as="geometry" />
        </mxCell>
        <mxCell id="7" value="Generate allergies report" style="rounded=1;arcSize=40;strokeWidth=2" vertex="1" parent="1">
          <mxGeometry x="643" y="321" width="212" height="49" as="geometry" />
        </mxCell>
        <mxCell id="8" value="Generate skin cancer report" style="rounded=1;arcSize=40;strokeWidth=2" vertex="1" parent="1">
          <mxGeometry x="658" y="420" width="182" height="66" as="geometry" />
        </mxCell>
        <mxCell id="9" value="Use AI" style="curved=1;startArrow=none;endArrow=block;exitX=1;exitY=0.49;entryX=0;entryY=0.49;" edge="1" parent="1" source="2" target="3">
          <mxGeometry relative="1" as="geometry">
            <Array as="points" />
          </mxGeometry>
        </mxCell>
        <mxCell id="10" value="Acne" style="curved=1;startArrow=none;endArrow=block;exitX=0.6;exitY=0;entryX=0;entryY=0.5;" edge="1" parent="1" source="3" target="4">
          <mxGeometry relative="1" as="geometry">
            <Array as="points">
              <mxPoint x="568" y="32" />
            </Array>
          </mxGeometry>
        </mxCell>
        <mxCell id="11" value="Pigmentation" style="curved=1;startArrow=none;endArrow=block;exitX=0.7;exitY=0;entryX=0;entryY=0.5;" edge="1" parent="1" source="3" target="5">
          <mxGeometry relative="1" as="geometry">
            <Array as="points">
              <mxPoint x="568" y="140" />
            </Array>
          </mxGeometry>
        </mxCell>
        <mxCell id="12" value="Eczema" style="curved=1;startArrow=none;endArrow=block;exitX=1;exitY=0.49;entryX=0;entryY=0.49;" edge="1" parent="1" source="3" target="6">
          <mxGeometry relative="1" as="geometry">
            <Array as="points" />
          </mxGeometry>
        </mxCell>
        <mxCell id="13" value="Allergies" style="curved=1;startArrow=none;endArrow=block;exitX=0.72;exitY=0.99;entryX=0;entryY=0.5;" edge="1" parent="1" source="3" target="7">
          <mxGeometry relative="1" as="geometry">
            <Array as="points">
              <mxPoint x="568" y="346" />
            </Array>
          </mxGeometry>
        </mxCell>
        <mxCell id="14" value="Skin Cancer" style="curved=1;startArrow=none;endArrow=block;exitX=0.6;exitY=0.99;entryX=0;entryY=0.5;" edge="1" parent="1" source="3" target="8">
          <mxGeometry relative="1" as="geometry">
            <Array as="points">
              <mxPoint x="568" y="453" />
            </Array>
          </mxGeometry>
        </mxCell>
      </root>
    </mxGraphModel>
  </diagram>
</mxfile>
